Coordinates
version=1
nRows=10
nColumns=40
inDegrees=yes

Units are S.I. units (second, meters, Newtons, ...)
If the header above contains a line with 'inDegrees', this indicates whether rotational values are in degrees (yes) or radians (no).

endheader
time	pelvis_tilt	pelvis_list	pelvis_rotation	pelvis_tx	pelvis_ty	pelvis_tz	hip_flexion_r	hip_adduction_r	hip_rotation_r	knee_angle_r	knee_angle_r_beta	ankle_angle_r	subtalar_angle_r	mtp_angle_r	hip_flexion_l	hip_adduction_l	hip_rotation_l	knee_angle_l	knee_angle_l_beta	ankle_angle_l	subtalar_angle_l	mtp_angle_l	lumbar_extension	lumbar_bending	lumbar_rotation	arm_flex_r	arm_add_r	arm_rot_r	elbow_flex_r	pro_sup_r	wrist_flex_r	wrist_dev_r	arm_flex_l	arm_add_l	arm_rot_l	elbow_flex_l	pro_sup_l	wrist_flex_l	wrist_dev_l
      4.35000000	    -22.70392808	      3.98762523	     -9.12827559	     -0.34477940	      0.96202218	     -1.08404834	      9.13681085	    -10.92235790	      6.00254852	     51.00956596	      0.89028488	      8.67699400	      0.00000000	      0.00000000	     47.52199703	      1.17635248	     -9.04340106	     42.96392756	      0.74986200	      5.91347293	      0.00000000	      0.00000000	      4.54491676	     -8.27603127	     12.44733012	     89.96562311	    -10.91913497	     16.12119371	     45.59540721	     57.95181932	      0.00000000	      0.00000000	     89.95687736	    -18.13816724	     12.10674884	     47.43089369	     80.94234071	      0.00000000	      0.00000000
      4.35500000	    -22.76738442	      4.02977464	     -9.05651196	     -0.34531772	      0.96139055	     -1.08410621	      9.22743030	    -10.93243676	      5.88942415	     51.04546405	      0.89091142	      8.91002015	      0.00000000	      0.00000000	     47.71815504	      1.22170158	     -9.02832624	     43.14002019	      0.75293539	      5.92716422	      0.00000000	      0.00000000	      4.52890445	     -8.33327464	     12.39627874	     89.96564775	    -10.87452407	     16.29284025	     45.76547135	     55.09787538	      0.00000000	      0.00000000	     89.95706485	    -18.10727238	     12.60251923	     47.60944463	     75.16681992	      0.00000000	      0.00000000
      4.36000000	    -22.84072592	      3.98130453	     -8.99484461	     -0.34590473	      0.96079653	     -1.08408806	      9.34970536	    -10.80038494	      5.87020854	     51.16069488	      0.89292257	      9.01101401	      0.00000000	      0.00000000	     47.91637761	      1.19413537	     -8.90502432	     43.31281328	      0.75595120	      5.94145807	      0.00000000	      0.00000000	      4.51432197	     -8.30299004	     12.32074607	     89.96570656	    -10.76881382	     16.26996506	     45.79795539	     53.40355819	      0.00000000	      0.00000000	     89.95722535	    -18.01528262	     12.77529251	     47.69814798	     70.92109754	      0.00000000	      0.00000000
      4.36500000	    -22.86398196	      4.08965717	     -9.08325898	     -0.34620758	      0.96027888	     -1.08404723	      9.44354445	    -10.89809544	      5.85320030	     51.17362430	      0.89314823	      9.17743840	      0.00000000	      0.00000000	     48.00311386	      1.19522108	     -9.06195236	     43.39707173	      0.75742179	      6.06317165	      0.00000000	      0.00000000	      4.47799091	     -8.39083989	     12.43852685	     89.96581725	    -10.77766186	     16.08897346	     45.70334575	     57.19926111	      0.00000000	      0.00000000	     89.95721598	    -18.11346462	     11.91582890	     47.61721382	     81.18071619	      0.00000000	      0.00000000
      4.37000000	    -22.85479014	      4.16564576	     -9.08119471	     -0.34654912	      0.95979458	     -1.08409762	      9.47108132	    -10.96336200	      5.77722235	     51.17619469	      0.89319310	      9.34259722	      0.00000000	      0.00000000	     48.09133815	      1.23215160	     -9.15729926	     43.54169650	      0.75994597	      6.14066294	      0.00000000	      0.00000000	      4.41148209	     -8.49454462	     12.45117902	     89.96583218	    -10.75497959	     16.17436612	     45.77612291	     55.47866729	      0.00000000	      0.00000000	     89.95729331	    -18.05878796	     12.25978921	     47.76567311	     76.73929168	      0.00000000	      0.00000000
      4.37500000	    -23.02849789	      4.08708064	     -9.03017962	     -0.34715166	      0.95910590	     -1.08407682	      9.66382182	    -10.77326794	      5.80216164	     51.20120991	      0.89362969	      9.35471836	      0.00000000	      0.00000000	     48.41586741	      1.18285244	     -8.89536617	     43.76164100	      0.76378472	      6.07365067	      0.00000000	      0.00000000	      4.51222336	     -8.39713102	     12.36268340	     89.96588935	    -10.53742431	     16.02861085	     45.71925984	     53.72568229	      0.00000000	      0.00000000	     89.95715342	    -17.96021620	     12.25310799	     47.79129101	     72.67884819	      0.00000000	      0.00000000
      4.38000000	    -23.05827369	      4.08583294	     -8.99193235	     -0.34763312	      0.95855706	     -1.08415240	      9.74527517	    -10.74917598	      5.70797391	     51.30262028	      0.89539964	      9.48243414	      0.00000000	      0.00000000	     48.54720390	      1.20680771	     -8.81830455	     43.89874991	      0.76617772	      6.06995607	      0.00000000	      0.00000000	      4.45813713	     -8.39785305	     12.33371114	     89.96610798	    -10.44265311	     16.05425438	     45.76075191	     52.09994566	      0.00000000	      0.00000000	     89.95717140	    -17.88286966	     12.43037651	     47.94646736	     68.64466955	      0.00000000	      0.00000000
      4.38500000	    -22.97582476	      4.32189076	     -9.02231248	     -0.34792003	      0.95815217	     -1.08418013	      9.76289738	    -11.02926837	      5.61220011	     51.41562893	      0.89737201	      9.79442654	      0.00000000	      0.00000000	     48.51056147	      1.31039611	     -9.24984220	     43.91197063	      0.76640847	      6.26832528	      0.00000000	      0.00000000	      4.32425245	     -8.69074767	     12.43691999	     89.96602961	    -10.68738727	     16.03990955	     45.80968791	     55.99170475	      0.00000000	      0.00000000	     89.95771454	    -17.97776616	     11.63696183	     47.87996428	     80.97377148	      0.00000000	      0.00000000
      4.39000000	    -22.98299951	      4.34728487	     -9.01044710	     -0.34824707	      0.95764965	     -1.08424640	      9.78976228	    -11.03345701	      5.54336922	     51.42217808	      0.89748632	      9.87995453	      0.00000000	      0.00000000	     48.61109706	      1.32613106	     -9.26391776	     44.07510928	      0.76925578	      6.29766405	      0.00000000	      0.00000000	      4.26219203	     -8.73538107	     12.46472770	     89.96608044	    -10.71815745	     16.17540993	     45.94437497	     54.27404000	      0.00000000	      0.00000000	     89.95775236	    -17.93588634	     12.09213650	     48.07626014	     76.07556359	      0.00000000	      0.00000000
      4.39500000	    -23.06461036	      4.40198052	     -8.98076952	     -0.34862628	      0.95694938	     -1.08422498	      9.91820012	    -11.05569367	      5.46066573	     51.50203306	      0.89888005	     10.04239976	      0.00000000	      0.00000000	     48.80942649	      1.34738670	     -9.28657952	     44.23876344	      0.77211208	      6.33894718	      0.00000000	      0.00000000	      4.29766091	     -8.79404252	     12.45986685	     89.96614448	    -10.67010773	     15.98310541	     45.86000765	     55.83818602	      0.00000000	      0.00000000	     89.95784911	    -17.90910826	     11.57273465	     48.00654796	     81.07045216	      0.00000000	      0.00000000
